<?xml version="1.0" encoding="utf-8"?>
<!-- Generator: Adobe Illustrator 24.0.1, SVG Export Plug-In . SVG Version: 6.00 Build 0)  -->
<svg version="1.1" id="Layer_1" xmlns="http://www.w3.org/2000/svg" xmlns:xlink="http://www.w3.org/1999/xlink" x="0px" y="0px"
	 viewBox="0 0 42.68 42.69" style="enable-background:new 0 0 42.68 42.69;" xml:space="preserve">
<style type="text/css">
	.st0{fill-rule:evenodd;clip-rule:evenodd;}
</style>
<g>
	<path d="M3.46,2.92V1.88c0-0.34-0.28-0.62-0.62-0.62H1.86c-0.34,0-0.62,0.28-0.62,0.62v7.07c0,0.34,0.28,0.62,0.62,0.62h0.98
		c0.34,0,0.62-0.28,0.62-0.62v-1.7h1.26v1.7c0,1.02-0.84,1.86-1.88,1.86H1.86C0.84,10.81,0,9.97,0,8.95V1.88C0,0.84,0.84,0,1.86,0
		h0.98c1.04,0,1.88,0.84,1.88,1.88v1.04H3.46z"/>
	<path d="M12.64,8.95c0,1.02-0.84,1.86-1.88,1.86H9.32c-1.04,0-1.88-0.84-1.88-1.86V1.88C7.43,0.86,8.27,0,9.32,0h1.44
		c1.02,0,1.88,0.84,1.88,1.88V8.95z M11.38,1.88c0-0.34-0.28-0.62-0.62-0.62H9.32c-0.34,0-0.62,0.28-0.62,0.62v7.07
		c0,0.34,0.28,0.62,0.62,0.62h1.44c0.34,0,0.62-0.28,0.62-0.62V1.88z"/>
	<path d="M17.02,4.4h2.32v1.24h-2.32v5.16h-1.26V0h3.9v1.26h-2.64V4.4z"/>
	<path d="M24.7,4.4h2.32v1.24H24.7v5.16h-1.26V0h3.9v1.26H24.7V4.4z"/>
	<path d="M32.36,4.4h2.34v1.24h-2.34v3.92H35v1.24h-3.88V0H35v1.26h-2.64V4.4z"/>
	<path d="M40.04,4.4h2.34v1.24h-2.34v3.92h2.64v1.24h-3.88V0h3.88v1.26h-2.64V4.4z"/>
</g>
<path d="M1.26,20.34h2.32v1.24H1.26v5.16H0V15.94h3.9v1.26H1.26V20.34z"/>
<g>
	<path d="M27.8,18.86v-1.04c0-0.34-0.28-0.62-0.62-0.62H26.2c-0.34,0-0.62,0.28-0.62,0.62v7.07c0,0.34,0.28,0.62,0.62,0.62h0.98
		c0.34,0,0.62-0.28,0.62-0.62v-1.7h1.26v1.7c0,1.02-0.84,1.86-1.88,1.86H26.2c-1.02,0-1.86-0.84-1.86-1.86v-7.07
		c0-1.04,0.84-1.88,1.86-1.88h0.98c1.04,0,1.88,0.84,1.88,1.88v1.04H27.8z"/>
	<path d="M31.9,15.94v4.4h0.56l2-4.4h1.34l-2.26,5.04l2.24,5.77h-1.32l-2.04-5.16H31.9v5.16h-1.24V15.94H31.9z"/>
	<path d="M42.68,15.94v10.81h-1.72l-3.12-9.57l0.32,4.92v4.64h-1.24V15.94h1.72l3.12,9.55l-0.32-5.51v-4.04H42.68z"/>
</g>
<g>
	<path d="M1.26,36.29h2.32v1.24H1.26v5.16H0V31.88h3.9v1.26H1.26V36.29z"/>
	<path d="M8.75,39.11h-2.3l-0.68,3.58H4.51l2.02-10.81h2.12l2.02,10.81H9.39L8.75,39.11z M6.67,37.87h1.84l-0.88-4.74H7.55
		L6.67,37.87z"/>
	<path d="M15.34,34.8v-1.04c0-0.34-0.28-0.62-0.62-0.62h-0.98c-0.34,0-0.62,0.28-0.62,0.62v7.07c0,0.34,0.28,0.62,0.62,0.62h0.98
		c0.34,0,0.62-0.28,0.62-0.62v-1.7h1.26v1.7c0,1.02-0.84,1.86-1.88,1.86h-0.98c-1.02,0-1.86-0.84-1.86-1.86v-7.07
		c0-1.04,0.84-1.88,1.86-1.88h0.98c1.04,0,1.88,0.84,1.88,1.88v1.04H15.34z"/>
	<path d="M20.85,33.14v9.55h-1.24v-9.55h-1.7v-1.26h4.66v1.26H20.85z"/>
	<path d="M29.08,40.83c0,1.02-0.84,1.86-1.88,1.86h-1.44c-1.04,0-1.88-0.84-1.88-1.86v-7.07c0-1.02,0.84-1.88,1.88-1.88h1.44
		c1.02,0,1.88,0.84,1.88,1.88V40.83z M27.82,33.76c0-0.34-0.28-0.62-0.62-0.62h-1.44c-0.34,0-0.62,0.28-0.62,0.62v7.07
		c0,0.34,0.28,0.62,0.62,0.62h1.44c0.34,0,0.62-0.28,0.62-0.62V33.76z"/>
	<path d="M31.95,37.53v5.16h-1.26V31.88h3.1c1.02,0,1.86,0.84,1.86,1.88v1.62c0,0.6-0.4,1.2-0.98,1.52c0.58,0.22,0.98,0.8,0.98,1.42
		v4.36h-1.24v-4.24c0-0.52-0.36-0.92-0.88-0.92H31.95z M33.47,36.29c0.52,0,0.94-0.46,0.94-0.94v-1.58c0-0.34-0.3-0.62-0.62-0.62
		h-1.84v3.14H33.47z"/>
	<path d="M37.85,41.45h1.2v-3.92h-0.22l-2.18-5.65h1.34l1.62,4.4h0.14l1.58-4.4h1.34l-2.14,5.65h-0.22v3.92h1.22v1.24h-3.68V41.45z"
		/>
</g>
<polygon class="st0" points="14.12,14.21 16.44,18.91 21.62,19.66 17.87,23.32 18.76,28.48 14.12,26.04 9.48,28.48 10.37,23.32 
	6.61,19.66 11.8,18.91 "/>
</svg>
